<?xml version="1.0" encoding="UTF-8"?>
<svg id="Layer_1" data-name="Layer 1" xmlns="http://www.w3.org/2000/svg" version="1.1" viewBox="0 0 2063.9 966.8">
  <defs>
    <style>
      .cls-1 {
        fill: #55acfe;
      }

      .cls-1, .cls-2 {
        stroke-width: 0px;
      }

      .cls-3 {
        fill: none;
        stroke: #000;
        stroke-miterlimit: 10;
        stroke-width: 5.7px;
      }

      .cls-2 {
        fill: #0a0a0a;
      }
    </style>
  </defs>
  <path class="cls-1" d="M731.8,426.5c26.3-10.6,510-195.8,897.9,331.8,1.2,1.7,2.7,3.2,4.3,4.5,40.7,33.2,575.3,472.2,376.6,502.6-3.7.6-7.5.2-11.1-.8-53.8-16.4-564.4-226.3-564.4-226.3,0,0-392.2-245.4-924.7,167.5-4.4,3.4-9.9,5.3-15.5,5.3-41.4.2-229.9,8.7-466.3,138.9-21.8,12-46.2-11-34.9-32.9,110.2-213.2,439.3-805,735.7-889.8.8-.2,1.6-.5,2.4-.8h0Z"/>
  <ellipse class="cls-2" cx="1416.6" cy="604.8" rx="24.8" ry="24.4"/>
  <ellipse class="cls-2" cx="1274.1" cy="605.2" rx="31.2" ry="30.7"/>
  <path class="cls-3" d="M1220,690.2c4.5,3.6,35.9,29.7,38.7,76.2,3.2,54.4-35.8,87.1-38.7,89.4"/>
  <path class="cls-3" d="M1492.5,690.2c-6.7,10.8-27.8,47.5-23.2,97.4,3,33,15.9,56.6,23.2,68.2"/>
  <path class="cls-3" d="M1258.7,766.4c15.3-9.8,53.7-31.4,106.3-29.6,52.1,1.8,89,25.5,103.7,36.2"/>
</svg>