<?xml version="1.0" encoding="UTF-8"?>
<svg id="Layer_1" data-name="Layer 1" xmlns="http://www.w3.org/2000/svg" viewBox="0 0 876.81 609.76">
  <defs>
    <style>
      .cls-1 {
        fill: #55acfe;
        stroke-width: 0px;
      }
    </style>
  </defs>
  <path class="cls-1" d="M165.94,80.54c9.55-9.11,186.82-172.43,445.38-6.34.82.53,1.72.96,2.65,1.26,23.33,7.68,330.04,110.01,249.35,157.02-1.51.88-3.2,1.38-4.95,1.51-26.11,1.91-283.02-3.83-283.02-3.83,0,0-211.82-41.39-371.05,230.25-1.32,2.25-3.34,4.01-5.77,4.97-17.87,7.1-97.9,42.78-177.73,140.04-7.36,8.97-21.87,3-20.74-8.54C11.03,484.55,51.46,168.76,165.05,81.3c.31-.24.6-.49.89-.76Z"/>
</svg>