<svg xmlns="http://www.w3.org/2000/svg" id="Layer_1" data-name="Layer 1" viewBox="0 0 792.51 609.29">
  <defs>
    <style>
      .cls-1,.cls-4{fill:#000;stroke-width:0}.cls-4{fill:#3b88c3}
    </style>
  </defs>
  <path d="M710.78 349.09c0-22.22 33.84-138.04 67.71-171.89 33.82-33.84 0-70.36-33.84-70.36-75.67 0-203.09 153.36-203.09 242.24 0 111.11 127.4 231.64 203.09 231.64 33.84 0 67.69-31.2 33.84-65.07-33.84-33.82-67.71-122.13-67.71-166.58Z" class="cls-4"/>
  <path d="M196.73 135.4C196.73 67.71 230 0 263.84 0c101.53 0 296.04 107.18 329.89 276.42 33.87 169.24-397-141.02-397-141.02ZM304.6 541.58c33.84 33.84 101.56 67.71 169.27 67.71s-69.13-93.09-33.84-135.38c48.44-58.16-135.42 67.67-135.42 67.67Z" class="cls-4"/>
  <path d="M42.29 440.17c16.91-37.66 4.22-64.86-25.4-92.03-29.62-27.21 6.28 13.28 35-31.91 96.08-151.15 236.93 73.81 137.06 140.71-65.6 43.94-146.67-16.76-146.67-16.76Z" class="cls-1"/>
  <path d="M0 337.71c21.31 19.42 249.43-86.44 203.23 36.29-5.02 13.35-28.21 53.2-113.01 71.66-57.86.55-38.78-7.1-47.93-5.5-18.67 7.13-15.87 20.5-8.93 31.68 33.29 58 161.91 103.6 270.22 103.6 186.93 0 373.38-169.22 373.38-236.93s-207.67-236.95-394.6-236.95C95.89 101.53.27 236.24 0 337.71Z" style="fill:#55acee;stroke-width:0"/>
  <path d="M151.82 193.53c24.54-.55 44.88 18.89 45.44 43.43.55 24.54-18.89 44.88-43.43 45.44-.66.01-1.32.02-1.99 0-24.54-.54-43.99-20.88-43.45-45.42.53-23.77 19.66-42.91 43.43-43.45Z" class="cls-1"/>
  <path d="M331.38 481.98c-12.24.04-22.19-9.84-22.24-22.08-.01-3.64.87-7.22 2.57-10.44 35.22-67.42 49.29-128.18 3.42-205.4-6.27-10.55-2.8-24.2 7.76-30.47 10.55-6.27 24.2-2.8 30.47 7.76 59.84 100.78 32.44 182.27-2.27 248.69-3.83 7.34-11.43 11.94-19.71 11.93Z" style="fill:#269;stroke-width:0"/>
</svg>