<svg xmlns="http://www.w3.org/2000/svg" id="Capa_1" data-name="Capa 1" viewBox="0 0 1157.07 1672.93">
  <defs>
    <style>
      .cls-2{stroke-width:0;fill:#00455b}
    </style>
  </defs>
  <path d="m171.42 631.88 6.11 505.06 3.47 252.42 2.21 126.12c.95 41.91 1.7 84.17 3.41 125.47v.19c.71 16.84-12.37 31.05-29.2 31.76-16.83.7-31.05-12.37-31.76-29.21l-.02-.92c-.5-42.83.05-84.75.36-127l1.6-126.38 4.14-252.57 9.1-504.94v-.09c.16-8.44 7.12-15.16 15.57-15.01 8.28.15 14.9 6.88 15.01 15.1Z" style="stroke-width:0;fill:#8e949d"/>
  <path d="m191.33 619.02-68.75-2.38c0 33.79-.94 85.56-.93 122.17 0 2.86.67 5.78 2.04 8.24 3.73 6.73 12.56 5.87 19.85 6.05 13.41.32 26.24-.34 38.96-1.65 2.95-.31 6.13-.72 8.28-2.93 2.48-2.55 2.77-6.63 2.87-10.32 1.09-39.07.69-79.47-2.33-119.18Z" style="fill:#444445;stroke-width:0"/>
  <path d="M111.92 71.41c92.19-28.87 202.33-46.97 305.52-46.95 31.78 0 62.89 1.71 92.62 5.32 65.11 7.9 129.17 27.58 184.18 61.66 26.84 16.61 50.79 37.72 75.07 59.53 24.29 21.79 48.89 44.27 77.37 63.08 63.02 41.58 135.47 73.19 212.71 78.91 12.76.93 25.54 1.46 36.53 3.66 5.5 1.09 10.51 2.56 14.89 4.55 4.38 1.99 8.12 4.45 11.36 7.64 3.72 3.69 6.22 7.76 7.92 12.42 1.69 4.65 2.52 9.92 2.52 15.66.07 14.69-5.73 32.28-13.65 46.83-21.33 39.45-52.7 73-90.09 99.62-37.38 26.62-80.76 46.27-125.71 57.93-31.18 8.09-61.88 11.13-92.64 11.14-73.14.07-146.6-17.53-224.61-24.6-15.58-1.4-30.86-2.05-45.89-2.05-65.61 0-126.31 12.45-185.88 29.48-59.58 17.05-118.08 38.65-179.62 57.39-6.46 1.97-10.11 8.8-8.14 15.26 1.97 6.46 8.8 10.1 15.27 8.14 62.41-19.02 120.84-40.58 179.22-57.27 58.39-16.7 116.67-28.54 179.15-28.54 14.32 0 28.87.62 43.7 1.95 75.68 6.73 149.77 24.63 226.8 24.7 32.37 0 65.25-3.22 98.78-11.92 47.7-12.38 93.72-33.19 133.75-61.68 40.01-28.49 74.07-64.72 97.43-107.92 9.24-17.21 16.52-37.75 16.59-58.46 0-8.08-1.16-16.21-3.98-24-2.81-7.78-7.35-15.19-13.72-21.48-5.54-5.48-11.89-9.55-18.46-12.52-9.89-4.46-20.28-6.59-30.44-7.9-10.16-1.29-20.15-1.74-29.28-2.42-71.64-5.26-140.43-34.91-201.03-74.93-26.39-17.41-50.14-38.98-74.5-60.87-24.37-21.86-49.36-44.05-78.53-62.12-58.66-36.33-126.11-56.88-194.1-65.15C482.17 1.75 450.09 0 417.44 0 311.41.02 199.31 18.45 104.62 48.07c-6.45 2.02-10.04 8.88-8.02 15.33 2.02 6.45 8.88 10.04 15.33 8.02Z" class="cls-2"/>
  <path d="m12.24 319.73-12.23-.05v1.76c0 40.05 4.04 80.08 12.48 119.16 6.7 30.97 17.85 68.28 35.16 102.31 8.66 17.01 18.88 33.22 31.01 47.37 12.12 14.13 26.2 26.24 42.56 34.7 13.43 6.9 28.93 12.7 45.71 12.75 4.52 0 9.12-.44 13.73-1.43 14.73-3.16 26.89-11.31 36.52-21.21 9.66-9.94 17.06-21.73 22.78-33.43 15.73-32.25 22.96-67.13 27.87-101.14 6.07-42.21 10.82-90.13 10.82-139.07 0-47.5-4.46-95.98-16.7-141.25-12.25-45.23-32.36-87.37-63.89-121.44-7.01-7.57-14.95-15.1-24.12-21.33-9.16-6.21-19.68-11.15-31.56-12.96-4.08-.62-8.11-.92-12.06-.92-16.31-.02-31.11 5.26-43.61 13.55-18.81 12.48-32.96 31.29-43.85 51.12C32 128.1 24.48 149.16 19.88 166.86 7.01 216.46.15 268.08 0 319.69v-.02l12.23.05 12.23.04c.14-49.49 6.73-99.11 19.09-146.78 5.48-21.28 16.13-48.76 31.24-69.87 7.53-10.57 16.12-19.52 25.38-25.61 9.3-6.1 19.06-9.48 30.14-9.5 2.7 0 5.48.21 8.38.65 7.39 1.12 14.52 4.29 21.51 9.02 6.97 4.72 13.67 10.97 19.9 17.7 28.18 30.43 46.73 68.74 58.23 111.21 11.5 42.43 15.86 88.89 15.86 134.85 0 47.37-4.61 94.19-10.57 135.59-4.74 32.99-11.66 65.32-25.64 93.89-4.88 10.01-11.11 19.71-18.33 27.1-7.25 7.43-15.23 12.45-24.12 14.36-2.8.6-5.66.88-8.6.88-10.85.05-23.05-4.08-34.48-10.02-12.95-6.68-24.69-16.6-35.22-28.89-15.8-18.4-28.74-42.06-38.78-66.68-10.06-24.62-17.28-50.16-22.04-72.23-8.05-37.28-11.93-75.59-11.93-113.99v-1.68l-12.23-.04Z" style="fill:#003e55;stroke-width:0"/>
  <path d="M260.69 196.07c72.43-57.17 134.7-110.26 202.6-172.73 3.73-3.43 3.97-9.23.54-12.96-3.43-3.73-9.23-3.97-12.96-.54-67.61 62.2-129.44 114.92-201.55 171.84-3.98 3.14-4.66 8.91-1.52 12.89s8.91 4.65 12.89 1.51Zm19.03 144.35C398.23 250.9 511.24 154.11 617.93 50.79c3.64-3.52 3.73-9.33.21-12.97-3.52-3.64-9.33-3.73-12.97-.21-106.16 102.8-218.6 199.1-336.51 288.17-4.04 3.05-4.85 8.81-1.79 12.85s8.81 4.84 12.85 1.79Zm-13.91 152.71c77.07-64.49 162.95-120.16 245.6-179.69 82.63-59.54 162.07-122.97 225.89-203.33 3.15-3.97 2.49-9.74-1.48-12.89-3.97-3.15-9.74-2.49-12.89 1.48-62.09 78.22-140.09 140.67-222.25 199.85-82.14 59.19-168.41 115.07-246.65 180.5-3.89 3.25-4.4 9.04-1.15 12.92 3.25 3.89 9.04 4.4 12.93 1.15Zm75.18 82.93C532.12 486.03 703 353.48 837.74 190.75c3.23-3.9 2.69-9.68-1.22-12.92s-9.68-2.69-12.91 1.21c-133 160.63-301.78 291.55-490.44 380.41-4.58 2.16-6.55 7.63-4.39 12.21 2.16 4.58 7.62 6.55 12.21 4.39Zm350.33-21.61c93.93-89.65 177.97-189.64 250.12-297.59 2.81-4.21 1.68-9.91-2.53-12.72-4.21-2.82-9.91-1.68-12.72 2.53-71.4 106.83-154.58 205.8-247.54 294.51-3.67 3.5-3.8 9.3-.3 12.97 3.5 3.66 9.31 3.8 12.97.3Zm169.54 17.31c87.66-79.44 160.52-175.1 213.81-280.72 2.28-4.52.46-10.04-4.06-12.32-4.52-2.28-10.04-.46-12.32 4.06-52.26 103.59-123.77 197.48-209.75 275.38-3.76 3.4-4.04 9.2-.64 12.96 3.4 3.75 9.2 4.04 12.96.64Z" class="cls-2"/>
  <path d="M251.5 508.94c28.94 22.44 57.88 44.89 86.81 67.33 4 3.11 9.77 2.38 12.87-1.62 3.11-4 2.38-9.77-1.62-12.87-28.94-22.45-57.88-44.89-86.82-67.33-4-3.1-9.77-2.37-12.87 1.63-3.1 4-2.38 9.76 1.63 12.87Zm12.04-180.09c35.71 25.06 84.63 66.09 128.07 107.36 21.73 20.64 42.11 41.35 58.81 60.13 16.69 18.74 29.74 35.7 36.58 48.08 2.46 4.43 8.04 6.03 12.47 3.58 4.43-2.46 6.03-8.04 3.58-12.47-8.11-14.56-21.74-32.04-38.92-51.38-51.52-57.87-134.77-131.47-190.05-170.32-4.15-2.91-9.87-1.91-12.78 2.24s-1.91 9.87 2.24 12.78Zm-32.75-160.21c145.3 90.25 298.42 225 386.92 375.97 2.56 4.37 8.18 5.84 12.56 3.27 4.37-2.56 5.84-8.19 3.27-12.56-90.83-154.73-245.8-290.69-393.06-382.27-4.3-2.67-9.96-1.35-12.63 2.95-2.67 4.3-1.35 9.96 2.95 12.63ZM256.17 37.7c15.7 8.45 31.41 16.89 47.11 25.33 28.59 15.37 57 30.66 83.78 48.1 80.26 52.21 162.67 119.49 216.99 196.97 55.53 79.07 118.06 163.78 146.98 253.34 1.56 4.82 6.73 7.46 11.55 5.9 4.82-1.56 7.46-6.73 5.9-11.55-30.35-93.59-94.14-179.34-149.41-258.22-56.49-80.47-140.56-148.76-222-201.81-27.64-17.99-56.5-33.5-85.1-48.88-15.7-8.45-31.41-16.89-47.11-25.33-4.46-2.4-10.02-.73-12.42 3.74-2.4 4.46-.73 10.02 3.74 12.42Zm262.41-6.93C684.73 164.92 820.72 342 880.45 546.11c.8 2.67 1.95 5.51 4.04 8.39 1.06 1.43 2.39 2.89 4.31 4.17 1.89 1.27 4.54 2.29 7.45 2.28 1.34 0 2.68-.21 3.89-.58 4.85-1.46 7.6-6.57 6.14-11.43-1.46-4.85-6.58-7.6-11.43-6.14l1.39 4.63v-4.82c-.54 0-1.05.09-1.39.2l1.39 4.63v-4.82 4.77l2.65-4.02c-.42-.3-1.47-.76-2.65-.75v4.77l2.65-4.02-1.49 2.26 1.82-2-.34-.26-1.49 2.26 1.82-2-.54.59.6-.53-.06-.06-.54.59.6-.53c-.1-.03-.94-1.52-1.24-2.7-61.09-208.62-199.52-388.45-367.95-524.47-3.94-3.18-9.72-2.57-12.9 1.38-3.18 3.94-2.57 9.72 1.38 12.9Zm314.38 169.31c65.7 94.1 116.42 209.92 149.17 320.41 1.44 4.86 6.55 7.63 11.4 6.19 4.86-1.44 7.63-6.55 6.19-11.4C966.47 403.2 915.16 285.85 848 189.59c-2.9-4.15-8.62-5.17-12.77-2.27s-5.17 8.62-2.27 12.77Zm182.6 85.94c29.12 50.73 48.45 107.1 56.58 165.03.7 5.02 5.34 8.51 10.36 7.81 5.02-.7 8.51-5.34 7.81-10.36-8.47-60.26-28.55-118.83-58.84-171.61-2.52-4.39-8.13-5.91-12.52-3.39-4.39 2.52-5.91 8.13-3.39 12.52Z" class="cls-2"/>
</svg>