<?xml version="1.0" standalone="no"?><svg xmlns="http://www.w3.org/2000/svg" viewBox="0 0 1440 320"><path fill="#7f6259" fill-opacity="1" d="M0,224L17.1,224C34.3,224,69,224,103,224C137.1,224,171,224,206,213.3C240,203,274,181,309,170.7C342.9,160,377,160,411,181.3C445.7,203,480,245,514,245.3C548.6,245,583,203,617,192C651.4,181,686,203,720,186.7C754.3,171,789,117,823,106.7C857.1,96,891,128,926,160C960,192,994,224,1029,224C1062.9,224,1097,192,1131,186.7C1165.7,181,1200,203,1234,192C1268.6,181,1303,139,1337,112C1371.4,85,1406,75,1423,69.3L1440,64L1440,320L1422.9,320C1405.7,320,1371,320,1337,320C1302.9,320,1269,320,1234,320C1200,320,1166,320,1131,320C1097.1,320,1063,320,1029,320C994.3,320,960,320,926,320C891.4,320,857,320,823,320C788.6,320,754,320,720,320C685.7,320,651,320,617,320C582.9,320,549,320,514,320C480,320,446,320,411,320C377.1,320,343,320,309,320C274.3,320,240,320,206,320C171.4,320,137,320,103,320C68.6,320,34,320,17,320L0,320Z"></path></svg>