<?xml version="1.0" standalone="no"?><svg xmlns="http://www.w3.org/2000/svg" viewBox="0 0 1440 320"><path fill="#DEB887" fill-opacity="1" d="M0,160L12.6,170.7C25.3,181,51,203,76,224C101.1,245,126,267,152,256C176.8,245,202,203,227,170.7C252.6,139,278,117,303,122.7C328.4,128,354,160,379,170.7C404.2,181,429,171,455,165.3C480,160,505,160,531,160C555.8,160,581,160,606,176C631.6,192,657,224,682,218.7C707.4,213,733,171,758,138.7C783.2,107,808,85,834,96C858.9,107,884,149,909,192C934.7,235,960,277,985,293.3C1010.5,309,1036,299,1061,272C1086.3,245,1112,203,1137,208C1162.1,213,1187,267,1213,277.3C1237.9,288,1263,256,1288,224C1313.7,192,1339,160,1364,160C1389.5,160,1415,192,1427,208L1440,224L1440,320L1427.4,320C1414.7,320,1389,320,1364,320C1338.9,320,1314,320,1288,320C1263.2,320,1238,320,1213,320C1187.4,320,1162,320,1137,320C1111.6,320,1086,320,1061,320C1035.8,320,1011,320,985,320C960,320,935,320,909,320C884.2,320,859,320,834,320C808.4,320,783,320,758,320C732.6,320,707,320,682,320C656.8,320,632,320,606,320C581.1,320,556,320,531,320C505.3,320,480,320,455,320C429.5,320,404,320,379,320C353.7,320,328,320,303,320C277.9,320,253,320,227,320C202.1,320,177,320,152,320C126.3,320,101,320,76,320C50.5,320,25,320,13,320L0,320Z"></path></svg>