<svg xmlns="http://www.w3.org/2000/svg" xml:space="preserve" width="800" height="800" fill="#474747" stroke="#474747" viewBox="0 0 512 512">
  <path d="m447.278 261.132 1.162-5.477c8.823-41.607 27.374-72.5 49.898-83.101l3.465-1.631-5.927 21.573c-5.52 20.093-8.823 42.198-9.699 64.907l-.144 3.729h-38.755zm0 .323 1.162 5.477c8.823 41.607 27.374 72.5 49.898 83.101l3.465 1.631-5.927-21.573c-5.52-20.093-8.823-42.198-9.699-64.907l-.144-3.729h-38.755zM334.76 251.266c13.544 26.184-86.756-13.469-86.756-13.469l1.938-4.707c-3.462-33.754 16.806-72.035 54.381-81.144l5.78-1.401c-.002.001-14.291 25.423 24.657 100.721zm55.392 31.069h-53.413l1.387 3.369c2.694 22.64 20.739 44.59 47.634 51.109l4.137 1.003.255-55.481zm-96.935 13.072h-63.626l1.652 4.013c3.208 26.97 24.705 53.115 56.741 60.882l4.927 1.194.306-66.089z" style="fill:#0d96bc"/>
  <path d="M484.218 260.582s-87.126 50.943-194.601 50.943c-119.007 0-137.558-15.473-155.546-30.56-11.973-10.042-30.528-16.804-41.65-19.866-20.296-5.587-82.222-18.176-82.222-18.176s80.491-6.924 142.806-18.487c29.615-5.495 72.173-14.797 136.612-14.797 107.475 0 194.601 50.943 194.601 50.943z" style="fill:#76cfe2"/>
  <path d="M505.709 327.389c-5.347-19.465-8.491-40.527-9.343-62.599l-.135-3.496.135-3.496c.852-22.072 3.996-43.133 9.343-62.599l5.927-21.572c1.055-3.84-.221-7.942-3.268-10.506-3.047-2.564-7.306-3.12-10.91-1.424l-3.465 1.631c-21.096 9.929-38.466 33.697-49.431 67.366-29.606-11.804-71.783-25.025-120.222-29.594-9.885-30.769-5.866-43.974-5.218-45.748 2.248-3.446 1.967-7.569-.388-10.981-2.4-3.476-6.93-4.73-11.036-3.736l-5.779 1.401c-28.527 6.915-50.736 29.297-59.122 59.089-35.206 2.59-62.026 7.675-83.251 11.702-2.912.553-5.711 1.084-8.401 1.583-61.094 11.335-141.021 18.283-141.82 18.353-5.052.434-9.017 4.515-9.308 9.577-.291 5.063 3.181 9.57 8.15 10.58.616.124 61.813 12.582 81.548 18.014 11.891 3.273 28.067 9.68 37.803 17.847 15.345 12.869 31.112 26.085 98.555 30.973 9.967 24.805 32.186 43.837 59.508 50.463l4.928 1.194c.794.192 1.6.287 2.402.287 2.253 0 4.469-.747 6.281-2.163 2.456-1.918 3.899-4.856 3.919-7.972l.252-40.107c12.768-.488 25.186-1.628 37.152-3.259 10.217 14.066 25.509 24.329 42.841 28.531l4.137 1.003c.794.192 1.601.287 2.403.287 2.253 0 4.468-.747 6.28-2.161 2.456-1.919 3.899-4.855 3.921-7.971l.212-32.317c16.535-4.718 31.307-9.947 43.848-14.934 10.876 33.965 28.722 58.691 49.837 68.629l3.465 1.631c1.385.653 2.868.971 4.341.971 2.359 0 4.694-.818 6.568-2.396 3.046-2.564 4.322-6.666 3.268-10.506l-5.927-21.575zm-21.627-130.031c-3.689 15.17-6.151 31.143-7.396 47.672-3.699-1.85-8.138-3.99-13.272-6.318 5.351-16.956 12.452-31.076 20.668-41.354zm-186.758-32.363c-.107 8.4 1.131 19.779 5.294 34.69-4.297-.155-8.629-.245-13-.245-8.684 0-16.957.169-24.867.467 5.542-13.926 16.067-27.779 32.573-34.912zm-202.196 86.27c-4.912-1.351-12.118-3.085-20.265-4.948 25.189-3.059 54.22-7.069 80.004-11.854 2.717-.504 5.542-1.04 8.483-1.597 28.981-5.498 68.671-13.027 126.269-13.027 75.927 0 142.151 26.512 172.241 40.752-30.05 14.243-96.172 40.734-172.241 40.734-31.356 0-55.441-1.06-74.239-2.877 1.054-2.228 1.921-4.556 2.576-6.975 1.472-5.436-1.742-11.038-7.179-12.51-5.438-1.473-11.038 1.742-12.51 7.179-.969 3.576-2.831 6.773-5.415 9.385-32.031-5.449-42.235-13.998-52.224-22.377-15.417-12.929-38.724-20.02-45.5-21.885zm154.328 69.754c10.184.389 21.314.623 33.506.685l-.166 26.376c-14.122-5.203-25.884-14.833-33.34-27.061zm130.33 3.126c-5.749-2.415-11.016-5.78-15.557-9.895 5.334-1.046 10.554-2.172 15.645-3.369l-.088 13.264zm83.237-41.517c5.251-2.374 9.789-4.558 13.561-6.444 1.203 16.95 3.687 33.324 7.453 48.857-8.4-10.585-15.677-25.156-21.014-42.413z"/>
  <path d="M195.58 265.84c1.955 3.004 5.223 4.638 8.558 4.638 1.907 0 3.836-.533 5.552-1.651 4.721-3.072 6.058-9.389 2.986-14.112-.777-1.193-1.627-2.364-2.526-3.48-3.535-4.385-9.956-5.074-14.342-1.537-4.385 3.536-5.073 9.957-1.537 14.342.468.578.908 1.184 1.309 1.8zm-37.229-20.552c-6.185 0-11.218 5.033-11.218 11.218s5.032 11.218 11.218 11.218 11.218-5.033 11.218-11.218c.001-6.184-5.032-11.218-11.218-11.218z"/>
</svg>