<svg xmlns="http://www.w3.org/2000/svg" xml:space="preserve" width="800" height="800" fill="#474747" stroke="#474747" stroke-width=".00512" transform="scale(-1 1)" viewBox="0 0 512 512">
  <path d="M291.148 222.534H156.474l2.284-5.546c17.346-42.131 53.812-73.412 98.091-84.146l6.811-1.651 27.488 91.343zm76.841 62.992h-77.02l1.635 3.97c12.415 30.155 38.516 52.545 70.209 60.228l4.875 1.182.301-65.38zm42.022-24.019 1.955 2.923c14.855 22.203 46.082 38.688 84.002 44.345l5.832.87-9.977-11.512c-9.292-10.722-14.854-22.518-16.33-34.636l-.243-1.99h-65.239zM126.66 283.672l1.878 4.773c14.267 36.26 53.645 69.463 105.926 89.313l8.041 3.054-10.64-19.508c-9.91-18.17-14.168-36.709-12.503-54.438l.273-2.911-92.975-20.283z" style="fill:#0d96bc"/>
  <path d="m410.011 261.507 1.955-6.455c14.855-49.031 46.082-85.436 84.002-97.928l5.832-1.922-9.977 25.423c-9.292 23.678-14.854 49.727-16.33 76.488l-.243 4.394h-65.239z" style="fill:#0d96bc"/>
  <path d="M468.843 260.859s-102.67 60.031-229.322 60.031c-213.092 0-229.322-60.031-229.322-60.031s16.23-60.032 229.322-60.032c126.65 0 229.322 60.032 229.322 60.032z" style="fill:#76cfe2"/>
  <path d="m509.508 302.964-9.977-11.511c-7.997-9.228-12.679-19.048-13.913-29.187l-.134-1.096.193-3.494c1.425-25.84 6.687-50.51 15.639-73.324l9.977-25.423c1.444-3.679.632-7.863-2.084-10.734-2.715-2.871-6.846-3.915-10.601-2.679l-5.833 1.922c-33.017 10.878-61.773 38.622-79.827 76.704-2.535-.96-5.137-1.925-7.804-2.889-27.931-10.101-67.084-21.6-111.916-27.198l-19.803-65.803c-1.56-5.187-6.908-8.247-12.17-6.973l-6.81 1.651c-40.123 9.727-74.793 35.547-95.64 71.078C18.795 206.855 1.956 252.268.353 258.197c-.471 1.743-.471 3.58 0 5.323 1.525 5.641 16.843 47.023 138.909 62.096 21.051 25.372 53.335 47.155 91.581 61.677l8.041 3.054c1.18.448 2.405.664 3.619.664 2.89 0 5.714-1.23 7.689-3.495 2.805-3.217 3.311-7.841 1.268-11.587l-10.64-19.508c-4.611-8.455-7.864-16.949-9.732-25.364 2.779.021 5.585.034 8.432.034 22.432 0 44.092-1.879 64.442-4.894 15.099 16.601 34.522 28.126 56.449 33.442l4.875 1.181c.795.192 1.6.287 2.401.287 2.256 0 4.475-.749 6.288-2.168 2.456-1.924 3.897-4.865 3.911-7.984l.192-41.507c9.875-2.992 18.95-6.046 27.067-8.98 7.353-2.659 14.199-5.312 20.518-7.886 17.954 13.029 42.148 22.306 68.803 26.282l5.832.87c.505.076 1.008.111 1.507.111 3.68 0 7.126-1.995 8.937-5.289 2.052-3.741 1.56-8.366-1.234-11.592zm-25.909-129.3-1.27 3.235c-8.712 22.201-14.202 45.969-16.375 70.768-7.111-3.723-18.731-9.472-34.028-15.931 12.63-26.148 30.771-46.451 51.673-58.072zm-226.915-30.261 14.58 48.446c-10.364-.783-20.963-1.221-31.742-1.221-19.946 0-38.23.524-54.996 1.48 17.773-23.753 43.243-41.073 72.158-48.705zm-36.666 217.164c-18.952-8.913-35.701-19.755-49.365-31.87 12.29.921 25.459 1.6 39.579 1.995 1.719 9.98 4.989 19.981 9.786 29.875zm137.532-22.962c-10.478-3.511-20.119-8.845-28.609-15.774 10.022-2.015 19.62-4.258 28.712-6.627l-.103 22.401zm-118.029-26.914c-35.663 0-65.575-1.699-90.685-4.483-.599-.326-1.225-.587-1.868-.786-2.935-3.174-5.059-6.984-6.203-11.208-1.473-5.437-7.071-8.654-12.51-7.178-5.437 1.472-8.651 7.074-7.179 12.511.276 1.02.592 2.023.931 3.013-72.958-11.949-94.634-33.703-100.287-41.701 7.963-11.266 47.681-49.831 217.802-49.831 92.803 0 173.327 33.462 207.166 49.831-33.84 16.371-114.366 49.832-207.167 49.832zm208.692-27.917c8.122-3.77 14.486-7.001 18.863-9.315 1.865 7.072 4.903 14.019 9.07 20.637-10.201-2.917-19.626-6.739-27.933-11.322z"/>
  <path d="M144.275 252.211c-4.384-3.536-10.805-2.852-14.343 1.532-1.02 1.263-1.985 2.594-2.87 3.954-3.073 4.721-1.736 11.039 2.985 14.112 1.718 1.118 3.646 1.651 5.553 1.651 3.335 0 6.604-1.634 8.558-4.638.509-.781 1.063-1.544 1.648-2.269 3.538-4.382 2.852-10.804-1.531-14.342zm-71.643-7.555c-6.286 0-11.4 5.115-11.4 11.401s5.114 11.4 11.4 11.4 11.4-5.114 11.4-11.4c0-6.287-5.114-11.401-11.4-11.401z"/>
</svg>