<?xml version="1.0" encoding="UTF-8"?>
<svg id="Layer_1" data-name="Layer 1" xmlns="http://www.w3.org/2000/svg" viewBox="0 0 978.28 571.03">
  <defs>
    <style>
      .cls-1 {
        fill: #ed0c27;
      }

      .cls-1, .cls-2, .cls-3, .cls-4, .cls-5, .cls-6, .cls-7, .cls-8 {
        stroke: #000;
        stroke-miterlimit: 10;
      }

      .cls-2 {
        fill: #070707;
      }

      .cls-9 {
        fill: #000;
      }

      .cls-9, .cls-10 {
        stroke-width: 0px;
      }

      .cls-3 {
        fill: none;
      }

      .cls-10, .cls-4 {
        fill: #055908;
      }

      .cls-5 {
        fill: #ffb703;
      }

      .cls-6 {
        fill: #16a56e;
      }

      .cls-7 {
        fill: #4a412a;
      }

      .cls-8 {
        fill: #4c4b4b;
      }
    </style>
  </defs>
  <path class="cls-8" d="M22.12,85.54c12.44,17.73,23.39,22.02,31.18,22.58,12.36.89,16.64-7.63,34.41-9.68,19.26-2.22,25.06,6.54,34.23,2.71,21.55-8.98,24.66-71.97,6.63-80.13-12.86-5.83-27.15,20.49-52.5,31.17-6.46,2.72-13.64,4.42-21.7,4.32-28.26-.37-47.01-22.71-52.69-17.2-3.16,3.06-1.19,13.68,20.43,46.24Z"/>
  <path class="cls-9" d="M98.53,39.03c-3.17,10.67,3.08,22.76,13.47,26.57,1.82.66,2.6-2.23.8-2.89-8.89-3.25-14.05-13.86-11.38-22.88.55-1.85-2.34-2.65-2.89-.8h0Z"/>
  <path class="cls-9" d="M74.05,96.29c-.19-2.77-1.8-4.84-3.52-6.88-1.3-1.55-2.91-3.51-2.61-5.7.14-1.05.89-1.59,1.87-1.85,1.42-.38,2.94-.48,4.4-.68,3.22-.45,6.44-.9,9.67-1.35.8-.11,1.24-1.14,1.05-1.85-.24-.86-1.04-1.16-1.85-1.05-3.57.5-7.14,1-10.7,1.5-2.83.4-6.07.72-7.15,3.85-.84,2.43.17,5.29,1.61,7.28s4.06,4.05,4.25,6.75c.13,1.92,3.13,1.93,3,0h0Z"/>
  <path class="cls-9" d="M39.08,54.34c.74,10.39,9.32,19.19,19.66,20.26.81.08,1.5-.75,1.5-1.5,0-.88-.69-1.42-1.5-1.5-8.63-.89-16.05-8.62-16.66-17.26-.14-1.91-3.14-1.93-3,0h0Z"/>
  <rect class="cls-5" x="329.25" y="44.59" width="54.84" height="70.97"/>
  <polygon class="cls-5" points="345.38 .5 384.09 44.59 374.41 44.59 340 .5 345.38 .5"/>
  <rect class="cls-6" x="480.66" y="60.81" width="54.84" height="70.97" transform="translate(556.9 -418.52) rotate(84.69)"/>
  <polygon class="cls-6" points="586.26 77.68 545.95 120.3 545.05 110.67 585.76 72.33 586.26 77.68"/>
  <circle class="cls-7" cx="379.79" cy="434.75" r="27.55"/>
  <path class="cls-2" d="M767.96,271.47c14.72,12.74,63.72,55.14,113.98,38.71,56.47-18.46,85.73-101.76,62.37-145.16-36.56-67.91-208.48-50.21-230.11,4.3-13.64,34.36,32.34,83.61,53.76,102.15Z"/>
  <path class="cls-2" d="M928.29,150.1c-5.03-6.61,4.98-24.93,22.58-44.09,15.98,6.22,27.51,16.6,26.88,25.81-1.14,16.71-42.23,27.78-49.46,18.28Z"/>
  <rect class="cls-1" x="246.46" y="229.53" width="133.33" height="79.57" rx="12" ry="12"/>
  <line class="cls-3" x1="251.66" y1="306.98" x2="280.86" y2="274.69"/>
  <line class="cls-3" x1="246.46" y1="234.91" x2="280.86" y2="274.69"/>
  <line class="cls-3" x1="379.79" y1="229.53" x2="340" y2="275.77"/>
  <line class="cls-3" x1="379.79" y1="309.1" x2="340" y2="275.77"/>
  <line class="cls-3" x1="280.86" y1="274.69" x2="340" y2="275.77"/>
  <rect class="cls-4" x="536.22" y="320.74" width="170.48" height="228.02" rx="12" ry="12" transform="translate(253.36 -228.37) rotate(25.99)"/>
  <path class="cls-4" d="M738.2,371.45l-109.87-53.57c-5.93-2.89-8.42-10.11-5.53-16.05l12.57-25.79c2.89-5.93,10.11-8.42,16.05-5.53l109.87,53.57c5.93,2.89,8.42,10.11,5.53,16.05l-12.57,25.79c-2.89,5.93-10.11,8.42-16.05,5.53ZM740.41,358.25l4.28-10.06c2.58-6.07-.27-13.16-6.35-15.74l-83.03-35.3c-6.07-2.58-13.16.27-15.74,6.35l-4.28,10.06c-2.58,6.07.27,13.16,6.35,15.74l83.03,35.3c6.07,2.58,13.16-.27,15.74-6.35Z"/>
  <rect class="cls-10" x="581.57" y="270.12" width="29.19" height="77.96" rx="12" ry="12" transform="translate(-74.34 271.96) rotate(-24.24)"/>
</svg>