<svg xmlns="http://www.w3.org/2000/svg" xml:space="preserve" width="201" height="201" transform="scale(-1 1) rotate(-45)" viewBox="0 0 511.98 511.98">
  <path d="m258.864 170.863 54.826 33.015c1.719 1.046 3.625 1.531 5.5 1.531 3.609 0 7.14-1.828 9.14-5.156l49.529-82.247c5.874-9.749 7.593-21.218 4.858-32.28-2.749-11.062-9.64-20.39-19.404-26.264-6.641-4.016-14.25-6.125-21.984-6.125-14.874 0-28.904 7.921-36.575 20.656l-49.515 82.23c-3.046 5.047-1.422 11.609 3.625 14.64zm69.466 140.878c-1.453-2.438-3.812-4.188-6.562-4.844-2.75-.688-5.656-.25-8.078 1.219l-54.826 32.998c-5.047 3.03-6.671 9.593-3.625 14.624l49.515 82.247c7.671 12.75 21.701 20.656 36.575 20.656 7.734 0 15.344-2.094 21.984-6.125 9.765-5.875 16.655-15.188 19.404-26.249 2.734-11.062 1.016-22.531-4.858-32.312l-49.529-82.214zM164.54 73.992c-7.672-12.734-21.687-20.656-36.577-20.656-7.734 0-15.328 2.109-21.983 6.125-9.766 5.875-16.656 15.203-19.39 26.264-2.75 11.062-1.031 22.531 4.844 32.28l49.529 82.247c2 3.328 5.531 5.156 9.156 5.156 1.858 0 3.765-.484 5.483-1.531l54.826-33.015c5.047-3.031 6.672-9.593 3.641-14.64l-49.529-82.23zm45.888 267.122-54.826-32.998c-2.422-1.469-5.327-1.906-8.077-1.219-2.734.656-5.094 2.406-6.562 4.844l-49.514 82.215c-5.891 9.78-7.609 21.249-4.859 32.312 2.734 11.062 9.625 20.374 19.39 26.249 6.656 4.031 14.25 6.125 21.983 6.125 14.89 0 28.905-7.906 36.577-20.656l49.529-82.247c3.031-5.032 1.406-11.595-3.641-14.625zm-178.43-95.785H10.655C4.765 245.329 0 250.095 0 256.001c0 5.89 4.766 10.655 10.655 10.655h21.343c5.875 0 10.656-4.766 10.656-10.655 0-5.907-4.781-10.672-10.656-10.672zm457.387-35.249c-13.999-11.656-32.498-18.077-52.075-18.077-19.593 0-38.077 6.421-52.077 18.077-14.577 12.14-22.592 28.452-22.592 45.92 0 17.46 8.015 33.771 22.592 45.896 14 11.656 32.484 18.093 52.077 18.093 19.577 0 38.076-6.437 52.075-18.093 14.562-12.125 22.593-28.437 22.593-45.896 0-17.468-8.031-33.78-22.593-45.92z" style="fill:#a0d468"/>
  <path d="M458.637 287.991c-5.891 0-10.656-4.78-10.656-10.655 0-5.898 4.766-10.68 10.656-10.68s10.671 4.781 10.671 10.68c0 5.875-4.781 10.655-10.671 10.655zm0-42.662c-5.891 0-10.656-4.781-10.656-10.672 0-5.89 4.766-10.655 10.656-10.655s10.671 4.765 10.671 10.655c0 5.891-4.781 10.672-10.671 10.672z" style="fill:#656d78"/>
  <path d="M430.92 184.784c-10.874-21.624-26.374-41.014-46.093-57.623-40.201-33.858-93.542-52.498-150.181-52.498-56.638 0-109.964 18.639-150.166 52.498-19.733 16.609-35.232 35.999-46.092 57.623C27.06 207.314 21.326 231.282 21.326 256c0 24.71 5.734 48.678 17.062 71.207 10.859 21.624 26.359 40.999 46.092 57.623 40.202 33.843 93.528 52.498 150.166 52.498 56.639 0 109.979-18.655 150.181-52.498 19.719-16.624 35.219-35.999 46.093-57.623 11.312-22.529 17.062-46.497 17.062-71.207-.001-24.718-5.751-48.685-17.062-71.216z" style="fill:#70dbbb"/>
  <path d="m313.8 203.971-73.811-42.67c-3.312-1.906-7.375-1.906-10.687 0l-73.81 42.67c-3.297 1.906-5.327 5.421-5.327 9.234v85.317c0 3.812 2.03 7.344 5.327 9.25l73.81 42.653c1.656.969 3.5 1.438 5.344 1.438s3.687-.469 5.343-1.438l73.81-42.653c3.297-1.906 5.328-5.438 5.328-9.25v-85.317c.001-3.812-2.031-7.328-5.327-9.234z" style="fill:#5fa560"/>
  <path d="M314.706 289.866c-4.78-3.438-11.437-2.344-14.89 2.406-3.453 4.781-2.375 11.469 2.406 14.906l93.651 67.621c5.172-5.062 10-10.374 14.469-15.874l-95.636-69.059zm-80.06 40.654c-5.891 0-10.656 4.781-10.656 10.655v95.935c3.531.125 7.094.219 10.656.219 3.578 0 7.125-.094 10.671-.219v-95.935c.001-5.874-4.781-10.655-10.671-10.655zm-80.059-40.654-95.636 69.06c4.469 5.5 9.296 10.781 14.484 15.874l93.652-67.621c4.766-3.438 5.844-10.125 2.406-14.906-3.454-4.782-10.125-5.845-14.906-2.407zm12.484-85.333-93.652-67.324c-5.188 5.078-10.015 10.358-14.484 15.858l95.683 68.794c1.875 1.359 4.047 2 6.219 2 3.312 0 6.578-1.531 8.656-4.438 3.437-4.78 2.359-11.452-2.422-14.89zm67.575-129.869c-3.562 0-7.125.078-10.656.219v95.652c0 5.89 4.766 10.656 10.656 10.656s10.671-4.766 10.671-10.656V74.883c-3.546-.141-7.093-.219-10.671-.219zm161.243 62.545-93.651 67.325c-4.781 3.438-5.875 10.109-2.438 14.89 2.078 2.906 5.359 4.438 8.672 4.438 2.155 0 4.327-.641 6.218-2l95.668-68.794c-4.469-5.501-9.297-10.797-14.469-15.859z" style="fill:#5fa560"/>
</svg>