<?xml version="1.0" standalone="no"?><svg xmlns="http://www.w3.org/2000/svg" viewBox="0 0 1440 320"><path fill="#0099ff" fill-opacity="1" d="M0,288L30,261.3C60,235,120,181,180,181.3C240,181,300,235,360,245.3C420,256,480,224,540,208C600,192,660,192,720,197.3C780,203,840,213,900,197.3C960,181,1020,139,1080,128C1140,117,1200,139,1260,154.7C1320,171,1380,181,1410,186.7L1440,192L1440,320L1410,320C1380,320,1320,320,1260,320C1200,320,1140,320,1080,320C1020,320,960,320,900,320C840,320,780,320,720,320C660,320,600,320,540,320C480,320,420,320,360,320C300,320,240,320,180,320C120,320,60,320,30,320L0,320Z"></path></svg>